# xmcd
#
# Track frame offsets: 
#        225
#        18205
#        34545
#        49650
#        63285
#        77780
#        97130
#        109720
#
# Disc length: 1691 seconds
#
# Revision: 0
# Processed by: cddbd v1.4PL0 Copyright (c) Steve Scherf et al.
# Submitted via: ExactAudioCopy v0.90b3
#
DISCID=5b069808
DTITLE=Ronnie Milsap - It Was Almost Like A Song
DYEAR=1977
DGENRE=Country
TTITLE0=What A Difference You Made In My Life
TTITLE1=It Was Almost Like A Song
TTITLE2=Selfish
TTITLE3=Long Distance Memory
TTITLE4=Here In Love
TTITLE5=The Future Is Not What It Used To Be
TTITLE6=It Don't Hurt To Deam
TTITLE7=Crystal Fallin' Rain
EXTD=
EXTT0=
EXTT1=
EXTT2=
EXTT3=
EXTT4=
EXTT5=
EXTT6=
EXTT7=
PLAYORDER=
